<mxfile host="app.diagrams.net" modified="2020-08-22T15:12:58.250Z" agent="5.0 (Windows NT 10.0; Win64; x64) AppleWebKit/537.36 (KHTML, like Gecko) Chrome/84.0.4147.125 Safari/537.36" etag="PXQhBtHjZbyRu8jfzAhV" version="13.6.4" type="github">
  <diagram id="yveUb_7qO_bMXMRE16Xy" name="Page-1">
    <mxGraphModel dx="868" dy="482" grid="1" gridSize="10" guides="1" tooltips="1" connect="1" arrows="1" fold="1" page="1" pageScale="1" pageWidth="827" pageHeight="1169" math="0" shadow="0">
      <root>
        <mxCell id="0" />
        <mxCell id="1" parent="0" />
        <mxCell id="ROHs20EbgKoYuMuvtaCM-9" value="" style="endArrow=none;html=1;strokeColor=#000000;rounded=0;" edge="1" parent="1">
          <mxGeometry width="50" height="50" relative="1" as="geometry">
            <mxPoint x="250" y="390" as="sourcePoint" />
            <mxPoint x="250" y="80" as="targetPoint" />
          </mxGeometry>
        </mxCell>
        <mxCell id="ROHs20EbgKoYuMuvtaCM-1" value="&lt;b&gt;Хранилище данных&lt;/b&gt;" style="shape=cylinder2;whiteSpace=wrap;html=1;boundedLbl=1;backgroundOutline=1;size=15;fillColor=#00FF00;" vertex="1" parent="1">
          <mxGeometry x="320" y="140" width="110" height="150" as="geometry" />
        </mxCell>
        <mxCell id="ROHs20EbgKoYuMuvtaCM-10" value="" style="endArrow=none;html=1;strokeColor=#000000;rounded=0;" edge="1" parent="1">
          <mxGeometry width="50" height="50" relative="1" as="geometry">
            <mxPoint x="520" y="390" as="sourcePoint" />
            <mxPoint x="520" y="80" as="targetPoint" />
          </mxGeometry>
        </mxCell>
      </root>
    </mxGraphModel>
  </diagram>
</mxfile>
